<svg width="1600" height="900" viewBox="0 0 1600 900" xmlns="http://www.w3.org/2000/svg" preserveAspectRatio="xMidYMid slice">
  <defs>
    <linearGradient id="bgGradient" x1="0" y1="0" x2="1" y2="1">
      <stop offset="0%" stop-color="#0e2a54" />
      <stop offset="100%" stop-color="#1c416d" />
    </linearGradient>
    <linearGradient id="goldGradient" x1="0" y1="0" x2="1" y2="1">
      <stop offset="0%" stop-color="#d4af37" />
      <stop offset="100%" stop-color="#f3d77a" />
    </linearGradient>
    <linearGradient id="softGlow" x1="0" y1="0" x2="0" y2="1">
      <stop offset="0%" stop-color="rgba(255,255,255,0.24)" />
      <stop offset="100%" stop-color="rgba(255,255,255,0)" />
    </linearGradient>
  </defs>

  <rect width="1600" height="900" fill="url(#bgGradient)" />
  <rect x="0" y="0" width="1600" height="900" fill="url(#softGlow)" opacity="0.16" />

  <g opacity="0.22">
    <path d="M180 820 C360 640 560 620 770 760 C960 880 1180 860 1420 720" fill="none" stroke="rgba(255,255,255,0.14)" stroke-width="20" stroke-linecap="round" />
    <path d="M80 700 C300 520 560 500 840 660 C1100 810 1320 780 1500 680" fill="none" stroke="rgba(255,255,255,0.1)" stroke-width="10" stroke-linecap="round" />
  </g>

  <g opacity="0.9" transform="translate(280 160)">
    <ellipse cx="240" cy="240" rx="210" ry="210" fill="rgba(212,175,55,0.15)" />
    <ellipse cx="1180" cy="130" rx="130" ry="130" fill="rgba(255,255,255,0.08)" />
    <ellipse cx="1260" cy="580" rx="170" ry="185" fill="rgba(212,175,55,0.12)" />
  </g>

  <g opacity="0.95" transform="translate(240 220)">
    <path d="M220 520 C220 380 240 320 380 280 C520 240 770 240 860 280 C950 320 970 380 970 520 L970 640 C970 710 920 760 860 760 L330 760 C270 760 220 710 220 640 Z" fill="rgba(255,255,255,0.06)" />
    <path d="M320 520 C320 420 340 380 420 360 C500 340 720 340 800 360 C880 380 900 420 900 520 L900 620 C900 660 860 700 820 700 L390 700 C350 700 320 660 320 620 Z" fill="rgba(255,255,255,0.08)" />
  </g>

  <g transform="translate(880 280)">
    <path d="M0 0 C30 -75 100 -110 180 -90 C280 -60 350 -10 390 50 L390 260 C360 310 300 340 230 340 C160 340 80 300 0 220 Z" fill="url(#goldGradient)" opacity="0.95" />
    <path d="M30 70 C90 20 140 28 170 70 C170 120 140 159 100 180 C60 200 30 170 30 70 Z" fill="rgba(255,255,255,0.35)" />
    <circle cx="180" cy="80" r="8" fill="#ffffff" opacity="0.9" />
  </g>

  <g fill="none" stroke="rgba(212,175,55,0.5)" stroke-width="3" opacity="0.84">
    <path d="M320 150 L380 100" />
    <path d="M420 220 L510 170" />
    <path d="M1150 120 L1220 70" />
    <path d="M1220 210 L1290 170" />
    <path d="M260 760 L320 720" />
    <path d="M640 790 L700 740" />
  </g>

  <g opacity="0.9" transform="translate(340 110)">
    <circle cx="0" cy="0" r="6" fill="#d4af37" />
    <circle cx="64" cy="42" r="4" fill="#f7e3a3" />
    <circle cx="120" cy="16" r="5" fill="#f7e3a3" />
    <circle cx="90" cy="88" r="3" fill="#ffffff" />
    <circle cx="500" cy="72" r="4" fill="#f7e3a3" />
    <circle cx="660" cy="30" r="3" fill="#ffffff" />
    <circle cx="1020" cy="90" r="5" fill="#d4af37" />
    <circle cx="1160" cy="160" r="4" fill="#f7e3a3" />
    <circle cx="1280" cy="72" r="4" fill="#ffffff" />
  </g>

  <rect x="0" y="0" width="1600" height="900" fill="url(#softGlow)" opacity="0.20" />
</svg>
